<svg width="100" height="100" viewBox="0 0 100 100" fill="none" xmlns="http://www.w3.org/2000/svg">
<g clip-path="url(#clip0_10760_96)">
<path d="M73.0363 51.3904C75.5952 51.2526 78.1553 51.1699 80.7142 50.9832V49.0157C78.1541 48.829 75.5952 48.7463 73.0363 48.6085L65.3571 48.3704C60.8508 48.2313 56.3446 48.1949 51.8383 48.1686C51.8283 43.6598 51.807 39.1511 51.6854 34.6423L51.4711 26.9631C51.3396 24.4042 51.2644 21.8441 51.0839 19.2852H48.9147C48.7343 21.8453 48.6591 24.4042 48.5275 26.9631L48.3132 34.6423C48.2569 36.7576 48.2293 38.8741 48.2067 40.9894C47.3759 39.0433 46.5413 37.0984 45.6792 35.1661L42.5426 28.1548C41.4411 25.8403 40.3922 23.5045 39.2456 21.2087L37.2418 22.0383C38.0538 24.4719 38.9649 26.8654 39.822 29.2814L42.5626 36.4568C43.3195 38.433 44.1052 40.3979 44.8934 42.3616C43.3809 40.8816 41.8671 39.4055 40.3308 37.9493L34.7493 32.6711C32.8471 30.9543 30.9837 29.1974 29.0463 27.5157L27.5125 29.0483C29.1955 30.9869 30.9523 32.8491 32.6679 34.7526L37.9461 40.334C39.4022 41.8704 40.8797 43.3854 42.3596 44.8979C40.396 44.1097 38.431 43.324 36.4549 42.5671L29.2782 39.8278C26.8634 38.9694 24.4699 38.0596 22.035 37.2463L21.2055 39.2501C23.5012 40.3967 25.8371 41.4456 28.1516 42.5458L35.1641 45.6824C37.0965 46.5446 39.0413 47.3779 40.9874 48.2087C38.8721 48.2313 36.7556 48.2576 34.6403 48.3152L26.9624 48.5295C24.4035 48.6611 21.8433 48.7363 19.2844 48.9167V51.0847C21.8446 51.2651 24.4035 51.3403 26.9624 51.4731L34.6403 51.6874C39.1491 51.809 43.6579 51.8303 48.1666 51.8403C48.1942 56.3466 48.2293 60.8528 48.3684 65.3591L48.6065 73.037C48.7443 75.5959 48.827 78.1561 49.0137 80.715H50.9812C51.1679 78.1548 51.2506 75.5959 51.3884 73.037L51.6278 65.3591C51.6942 63.1924 51.7293 61.0258 51.7594 58.8591C52.6165 60.8491 53.4774 62.8378 54.3684 64.814L57.5275 71.8165C58.634 74.1285 59.6904 76.4618 60.8421 78.7551L62.6604 78.002C61.8533 75.5659 60.9511 73.1686 60.0977 70.7513L57.3797 63.5659C56.6115 61.5383 55.8145 59.5233 55.0137 57.5095C56.5676 59.0207 58.1253 60.5283 59.7042 62.0132L65.302 67.2739C67.2092 68.9869 69.0777 70.7375 71.02 72.4155L72.411 71.0233C70.733 69.0822 68.9824 67.2125 67.2694 65.3065L62.0087 59.7075C60.5238 58.1285 59.0163 56.5721 57.5062 55.0182C59.52 55.819 61.5351 56.616 63.5626 57.3829L70.7481 60.1022C73.1654 60.9543 75.5614 61.8566 77.9975 62.6649L78.7506 60.8466C76.4574 59.6937 74.1253 58.6373 71.812 57.532L64.8095 54.3729C62.8333 53.4819 60.8446 52.6197 58.8546 51.7626C61.0213 51.7325 63.1879 51.6974 65.3546 51.6298L73.0363 51.3904Z" fill="#040531"/>
<path d="M50 4.16291C24.7256 4.16291 4.16291 24.7256 4.16291 50C4.16291 75.2744 24.7243 95.8371 49.9987 95.8371C75.2732 95.8371 95.8371 75.2744 95.8371 50C95.8371 24.7256 75.2744 4.16291 50 4.16291ZM50 100C22.4298 100 0 77.5702 0 50C0 22.4298 22.4298 0 50 0C77.5702 0 100 22.4298 100 50C100 77.5702 77.5702 100 50 100Z" fill="#040531"/>
</g>
<defs>
<clipPath id="clip0_10760_96">
<rect width="100" height="100" fill="white"/>
</clipPath>
</defs>
</svg>
