<svg xmlns="http://www.w3.org/2000/svg" width="1rem" height="1rem" fill="none" viewBox="0 0 16 16" role="img" aria-hidden="true" class="NavItem__StyledIcon-sc-565nnh-4 iFKtKY" color="#F5F4F4" data-testid="icon-moveHorizontal" title="moveHorizontal"><path fill="currentColor" d="M10.646 13.146a.5.5 0 0 0 .708.708l2.5-2.5a.5.5 0 0 0 0-.708l-2.5-2.5a.5.5 0 0 0-.708.708l1.647 1.646H2.5a.5.5 0 0 0 0 1h9.793zM5.354 2.854a.5.5 0 1 0-.708-.708l-2.5 2.5a.5.5 0 0 0 0 .708l2.5 2.5a.5.5 0 1 0 .708-.708L3.707 5.5H13.5a.5.5 0 0 0 0-1H3.707z"></path></svg>

